<?xml version="1.0" encoding="UTF-8" standalone="no"?>
<svg
   id="Layer_1"
   data-name="Layer 1"
   viewBox="0 0 1920 1080"
   version="1.1"
   sodipodi:docname="Logo 2.svg"
   xml:space="preserve"
   inkscape:version="1.2.2 (b0a8486541, 2022-12-01)"
   xmlns:inkscape="http://www.inkscape.org/namespaces/inkscape"
   xmlns:sodipodi="http://sodipodi.sourceforge.net/DTD/sodipodi-0.dtd"
   xmlns="http://www.w3.org/2000/svg"
   xmlns:svg="http://www.w3.org/2000/svg"><sodipodi:namedview
     id="namedview34"
     pagecolor="#ffffff"
     bordercolor="#000000"
     borderopacity="0.25"
     inkscape:showpageshadow="2"
     inkscape:pageopacity="0.0"
     inkscape:pagecheckerboard="0"
     inkscape:deskcolor="#d1d1d1"
     showgrid="false"
     inkscape:zoom="0.43703704"
     inkscape:cx="979.32203"
     inkscape:cy="811.14406"
     inkscape:window-width="1920"
     inkscape:window-height="1163"
     inkscape:window-x="0"
     inkscape:window-y="0"
     inkscape:window-maximized="1"
     inkscape:current-layer="Layer_1" /><defs
     id="defs9"><style
       id="style2">.cls-1{fill:#1d1e1e;}.cls-2{fill:#008cf4;}.cls-3{fill:url(#linear-gradient);}</style><linearGradient
       id="linear-gradient"
       x1="883.26"
       y1="668.73"
       x2="1224.95"
       y2="668.73"
       gradientUnits="userSpaceOnUse"><stop
         offset="0"
         stop-color="#008cf4"
         id="stop4" /><stop
         offset="1"
         stop-color="#008cf4"
         stop-opacity="0"
         id="stop6" /></linearGradient><style
       id="style2-6">.cls-1{fill:#008cf4;}.cls-2{fill:url(#linear-gradient);}</style><linearGradient
       id="linear-gradient-7"
       x1="397.06"
       y1="327.18"
       x2="738.75"
       y2="327.18"
       gradientUnits="userSpaceOnUse"
       gradientTransform="matrix(1,0,0,1.0163251,0,-5.306333)"><stop
         offset="0"
         stop-color="#008cf4"
         id="stop4-5" /><stop
         offset="1"
         stop-color="#008cf4"
         stop-opacity="0"
         id="stop6-3" /></linearGradient></defs><rect
     class="cls-1"
     width="1920"
     height="1080"
     id="rect11"
     style="fill:#1d1e1e;fill-opacity:1" /><g
     id="g420"
     transform="translate(486.2,341.54)"><polygon
       class="cls-1"
       points="789.8,220.08 887.9,83.27 908.92,53.94 947.6,0 921,53.94 906.52,83.27 855.99,185.68 911.36,178.73 753.58,396.92 842.01,217.29 "
       id="polygon11" /><path
       class="cls-1"
       d="m 477.76,122.91 c 17.7,0 29.92,12.23 29.92,29.92 v 93.55 c 0,17.7 -12.22,29.92 -29.92,29.92 H 427 c -17.69,0 -29.92,-12.22 -29.92,-29.92 v -93.55 c 0,-17.69 12.23,-29.92 29.92,-29.92 z m -0.42,35.82 c 0,-4.84 -2.32,-7.16 -7.17,-7.16 h -35.6 c -4.85,0 -7.16,2.32 -7.16,7.16 v 81.75 c 0,4.85 2.31,7.16 7.16,7.16 h 35.6 c 4.85,0 7.17,-2.31 7.17,-7.16 z"
       id="path13" /><path
       class="cls-1"
       d="M 195.51,122.91 H 159.73 L 110.31,276.3 h 31.74 l 10.22,-34.51 h 49.63 l 10,34.51 h 33 z m -34.73,89.91 16.62,-56.24 16.2,56.24 z"
       id="path15" /><polygon
       class="cls-1"
       points="288.07,276.3 259.32,276.3 259.32,122.92 292.34,122.92 348.79,227.51 348.79,122.92 377.54,122.92 377.54,276.3 344.52,276.3 288.07,171.7 "
       id="polygon17" /><polygon
       class="cls-1"
       points="740.37,183.42 740.37,212.39 683.92,212.39 683.92,247.32 753.58,247.32 753.58,276.3 653.25,276.3 653.25,122.92 753.58,122.92 753.58,151.89 683.92,151.89 683.92,183.42 "
       id="polygon19" /><path
       class="cls-1"
       d="m 589.07,122.94 h -61.6 v 29 h 59.13 a 20.32,20.32 0 0 1 20.32,20.32 v 54.83 a 20.27,20.27 0 0 1 -20.28,20.28 h -28.52 v -83.51 h -30.65 v 112.45 h 59.27 a 50.86,50.86 0 0 0 50.85,-50.88 v -54 a 48.51,48.51 0 0 0 -48.52,-48.49 z"
       id="path21" /><polygon
       class="cls-1"
       points="156.1,84.42 156.1,55.09 910.94,55.09 902.8,84.42 "
       id="polygon23"
       transform="matrix(1,0,0,0.99693147,0,0.18904532)" /><rect
       class="cls-2"
       x="397.06"
       y="312.59"
       width="341.67999"
       height="29.26"
       id="rect25"
       style="fill:url(#linear-gradient-7);stroke-width:1.00813" /><rect
       class="cls-1"
       x="155.367"
       y="312.59"
       width="241.97093"
       height="29.23"
       id="rect27"
       style="stroke-width:1.00969" /><path
       class="cls-1"
       d="M 143.86,55.11 C 64.54,55.11 0,119.42 0,198.47 0,277.52 64.54,341.82 143.86,341.82 h 12.23 v -29.23 h -12.23 c -63.2,0 -114.62,-51.2 -114.62,-114.12 0,-62.92 51.42,-114.12 114.62,-114.12 h 25.36 V 55.11 Z"
       id="path29" /></g></svg>
